# xmcd CD database file
#
# Track frame offsets:
#	150
#	12184
#	30704
#	45177
#	59075
#	71688
#	88592
#	102458
#	116252
#	129833
#	143054
#	155775
#	168469
#	182719
#	217603
#
# Disc length: 3062 seconds
#
# Revision: 0
# Processed by: cddbd v1.5.2PL0 Copyright (c) Steve Scherf et al.
# Submitted via: CDex 1.82
#
DISCID=c50bf40f
DTITLE=Charlie Parker - Bird (compilation)
DYEAR=2002
DGENRE=Jazz
TTITLE0=Scrapple from the Apple
TTITLE1=Out of Nowhere
TTITLE2=My Old Flame
TTITLE3=Groovin'High
TTITLE4=Don't Blame Me
TTITLE5=Embraceable You
TTITLE6=Crazeology
TTITLE7=Dewey Square
TTITLE8=Air Conditioning
TTITLE9=Bongo Bop
TTITLE10=Chasing the Bird
TTITLE11=Marmaduke
TTITLE12=Parker's Mood
TTITLE13=Sweet Georgia Brown
TTITLE14=Donna Lee
EXTD=YEAR: 2002
EXTT0=
EXTT1=
EXTT2=
EXTT3=
EXTT4=
EXTT5=
EXTT6=
EXTT7=
EXTT8=
EXTT9=
EXTT10=
EXTT11=
EXTT12=
EXTT13=
EXTT14=
PLAYORDER=
